Coordinates
version=1
nRows=14
nColumns=42
inDegrees=yes

Units are S.I. units (second, meters, Newtons, ...)
If the header above contains a line with 'inDegrees', this indicates whether rotational values are in degrees (yes) or radians (no).

endheader
time	pelvis_tilt	pelvis_list	pelvis_rotation	pelvis_tx	pelvis_ty	pelvis_tz	hip_flexion_r	hip_adduction_r	hip_rotation_r	knee_angle_r	knee_adduction_r	knee_angle_r_beta	ankle_angle_r	subtalar_angle_r	mtp_angle_r	hip_flexion_l	hip_adduction_l	hip_rotation_l	knee_angle_l	knee_adduction_l	knee_angle_l_beta	ankle_angle_l	subtalar_angle_l	mtp_angle_l	lumbar_extension	lumbar_bending	lumbar_rotation	arm_flex_r	arm_add_r	arm_rot_r	elbow_flex_r	pro_sup_r	wrist_flex_r	wrist_dev_r	arm_flex_l	arm_add_l	arm_rot_l	elbow_flex_l	pro_sup_l	wrist_flex_l	wrist_dev_l
      1.20000000	     -3.19181041	     -2.48161956	     -7.39360559	     -0.00322688	      0.84092221	     -0.35253755	     -8.84832032	     -0.09492987	      0.39565635	     23.82423207	      7.11366231	      0.41581129	      8.72429324	      1.22948830	     -7.58102003	     26.13506433	     -8.31029942	     -9.22967156	     13.82993816	      9.44004898	      0.24137796	      4.22298938	     -8.59930565	     -7.58102003	     -4.92117977	      0.60745628	     13.76434131	     12.63994163	    -20.57817499	     10.38835558	     42.33230480	     90.00000001	      0.00000000	      0.00000000	     -5.85901721	    -10.26081635	    -22.51909172	     33.62534403	     90.00000001	      0.00000000	      0.00000000
      1.21000000	     -3.27545868	     -1.98687666	     -7.38413838	      0.00961885	      0.84121360	     -0.35326921	     -8.10214966	     -0.82456902	      0.35196935	     26.45771967	      7.17939066	      0.46177432	      6.61536686	     -0.17302139	     -7.57882082	     25.86949916	     -7.56872261	     -8.63245447	     14.62172430	      9.43220795	      0.25519723	      3.87646627	     -9.10883105	     -7.57882082	     -4.66392455	     -0.00792740	     13.69145231	     12.23264750	    -20.31305240	     10.02381184	     42.21030274	     90.00000001	      0.00000000	      0.00000000	     -5.85648420	    -10.44434135	    -22.63502344	     33.44077606	     90.00000001	      0.00000000	      0.00000000
      1.22000000	     -3.32048908	     -1.51067850	     -7.32496086	      0.02247098	      0.84167283	     -0.35415973	     -7.23693145	     -1.53888105	      0.20276154	     29.32103682	      7.23274643	      0.51174863	      4.19204617	     -1.81033616	     -7.57660640	     25.50882863	     -6.84197210	     -7.90620786	     15.36401854	      9.51001658	      0.26815271	      3.49941430	     -9.79403224	     -7.57660640	     -4.46824894	     -0.57455649	     13.54369597	     11.82196341	    -20.07226826	      9.64229777	     42.03866860	     90.00000001	      0.00000000	      0.00000000	     -5.84396312	    -10.62062269	    -22.69239390	     33.28072631	     90.00000001	      0.00000000	      0.00000000
      1.23000000	     -3.29408849	     -1.05633733	     -7.23472114	      0.03538215	      0.84236549	     -0.35493317	     -6.30918970	     -2.19841930	     -0.06837400	     32.35176497	      7.16115368	      0.56464482	      1.56556133	     -3.56983239	     -7.57468582	     25.00699391	     -6.15279992	     -7.13837572	     16.02981842	      9.62400840	      0.27977311	      3.21001429	    -10.44388378	     -7.57468582	     -4.35720828	     -1.14422725	     13.34102065	     11.36903238	    -19.76692562	      9.31009948	     41.82651279	     90.00000001	      0.00000000	      0.00000000	     -5.80357240	    -10.83323946	    -22.70337968	     33.15893601	     90.00000001	      0.00000000	      0.00000000
      1.24000000	     -3.26922016	     -0.54237622	     -7.09334123	      0.04820041	      0.84314486	     -0.35595154	     -5.18618188	     -2.88551007	     -0.47537805	     35.59918036	      6.93391575	      0.62132291	     -1.28692458	     -5.67012332	     -7.57341479	     24.42179468	     -5.38658590	     -6.36088143	     16.50549507	      9.80789029	      0.28807523	      2.94579347	    -11.21194748	     -7.57341479	     -4.25511047	     -1.74546580	     13.07072418	     10.92362488	    -19.53552936	      8.95559351	     41.55255682	     90.00000001	      0.00000000	      0.00000000	     -5.72817623	    -11.01395585	    -22.68496738	     33.05808618	     90.00000001	      0.00000000	      0.00000000
      1.25000000	     -3.35819788	      0.04206759	     -6.91896019	      0.06092671	      0.84386107	     -0.35692061	     -3.78562615	     -3.61677650	     -0.86261132	     38.96954415	      6.66789012	      0.68014685	     -4.12376456	     -8.10615100	     -7.57201390	     23.90825573	     -4.56787809	     -5.50378249	     16.84805918	     10.00840468	      0.29405411	      2.65272724	    -12.04554486	     -7.57201390	     -4.02324256	     -2.42701762	     12.71343458	     10.44997521	    -19.18650193	      8.59024470	     41.24466468	     90.00000001	      0.00000000	      0.00000000	     -5.65182719	    -11.24161627	    -22.60683540	     32.95536212	     90.00000001	      0.00000000	      0.00000000
      1.26000000	     -3.65375458	      0.55849006	     -6.67320248	      0.07327119	      0.84451189	     -0.35804454	     -2.07471988	     -4.26177712	     -0.56038976	     42.27897015	      6.89569059	      0.73790723	     -6.92934213	    -11.71116308	     -7.56789917	     23.53032812	     -3.83224321	     -4.22567540	     16.91104672	     10.35440613	      0.29515345	      1.87666084	    -13.87004922	     -7.56789917	     -3.61000418	     -2.97644907	     12.30645878	      9.95447797	    -18.83456301	      8.06913443	     40.82340024	     90.00000001	      0.00000000	      0.00000000	     -5.51937417	    -11.44742186	    -22.43291086	     32.83623632	     90.00000001	      0.00000000	      0.00000000
      1.27000000	     -3.48287939	      1.06359531	     -6.44907467	      0.08606075	      0.84568208	     -0.35899488	     -0.78549001	     -4.84264846	     -1.27187340	     45.56098470	      6.18720149	      0.79518919	     -9.30002069	    -13.49357526	     -7.56663880	     22.53051656	     -3.12744300	     -3.68195245	     16.92758287	     10.60451809	      0.29544206	      2.18683348	    -13.99172003	     -7.56663880	     -3.69368416	     -3.57956886	     11.84321515	      9.49625150	    -18.54670629	      7.89202308	     40.44248499	     90.00000001	      0.00000000	      0.00000000	     -5.38301362	    -11.65175269	    -22.34192212	     32.79433765	     90.00000001	      0.00000000	      0.00000000
      1.28000000	     -3.48169151	      1.62345851	     -6.19393387	      0.09847306	      0.84667261	     -0.36004662	      0.84775877	     -5.47362994	     -1.81440473	     48.85757042	      5.55864689	      0.85272547	    -11.27967269	    -15.39427684	     -7.56541129	     21.67486100	     -2.36195955	     -3.17591292	     16.79751526	     10.81387906	      0.29317195	      2.44309871	    -14.12965028	     -7.56541129	     -3.63103571	     -4.20446235	     11.31700810	      9.06508639	    -18.21684262	      7.63859854	     40.00369207	     90.00000001	      0.00000000	      0.00000000	     -5.22063131	    -11.87397066	    -22.16607476	     32.78442322	     90.00000001	      0.00000000	      0.00000000
      1.29000000	     -3.11764305	      1.68608003	     -5.81013818	      0.11065188	      0.84825960	     -0.36101477	      1.88849484	     -5.49965700	     -1.76469666	     51.60014487	      5.34926063	      0.90059242	    -12.00432458	    -16.15296939	     -7.56503370	     20.44795999	     -2.18733765	     -2.81529705	     16.84490834	     11.19381321	      0.29399911	      2.67524064	    -14.04026127	     -7.56503370	     -4.13375586	     -4.29510581	     10.57715022	      8.77435525	    -18.00736810	      7.50337639	     39.70823511	     90.00000001	      0.00000000	      0.00000000	     -4.94057503	    -11.97683465	    -22.03600659	     32.75946358	     90.00000001	      0.00000000	      0.00000000
      1.30000000	     -3.45358208	      2.62312045	     -5.66328274	      0.12297001	      0.84882866	     -0.36211957	      4.24116385	     -6.48471413	     -2.73467352	     54.85480844	      4.09407448	      0.95739702	    -13.49516174	    -17.71963069	     -7.56378998	     19.64452556	     -0.99251839	     -2.51448897	     16.04986483	     11.19249829	      0.28012299	      3.24729440	    -13.98065256	     -7.56378998	     -3.58554248	     -5.28633491	     10.18720677	      8.20785289	    -17.59817864	      7.22493429	     39.01880782	     90.00000001	      0.00000000	      0.00000000	     -4.80949533	    -12.25307761	    -21.75681161	     32.79739228	     90.00000001	      0.00000000	      0.00000000
      1.31000000	     -3.17382878	      2.66641822	     -5.26394292	      0.13483109	      0.85031311	     -0.36312273	      5.55141644	     -6.40661699	     -2.83114229	     57.29994618	      3.65261028	      1.00007272	    -13.36929030	    -18.06801887	     -7.56303332	     18.37916721	     -0.84657058	     -2.55728237	     15.89950566	     11.45401453	      0.27749872	      3.61845109	    -13.58595602	     -7.56303332	     -4.03627254	     -5.30872188	      9.39833645	      7.91324250	    -17.41423822	      7.10744802	     38.71741033	     90.00000001	      0.00000000	      0.00000000	     -4.50349539	    -12.33489974	    -21.57797235	     32.82883270	     90.00000001	      0.00000000	      0.00000000
      1.32000000	     -3.46596778	      3.60611362	     -5.09714556	      0.14682400	      0.85090255	     -0.36427442	      7.92823259	     -7.36222955	     -3.49607555	     60.01577293	      2.49740061	      1.04747284	    -13.15203141	    -18.39354846	     -7.56017716	     17.36425945	      0.39813201	     -2.40202409	     14.79515940	     11.34247890	      0.25822424	      4.08042221	    -13.33024318	     -7.56017716	     -3.59014519	     -6.28424715	      8.93508870	      7.39629943	    -17.00763665	      6.75563416	     37.99528179	     90.00000001	      0.00000000	      0.00000000	     -4.32003679	    -12.60663211	    -21.16713373	     32.93683348	     90.00000001	      0.00000000	      0.00000000
      1.33000000	     -3.35990310	      3.74246587	     -4.87617559	      0.15857246	      0.85213821	     -0.36500525	      9.61515636	     -7.25129515	     -3.69253050	     62.01396495	      1.69402385	      1.08234787	    -12.37937168	    -18.60690407	     -7.55899360	     15.97928596	      0.60595438	     -2.58123433	     14.06558533	     11.54507743	      0.24549078	      4.78640320	    -12.70269509	     -7.55899360	     -3.76492602	     -6.39116337	      8.34493355	      7.03560631	    -16.79671360	      6.73091976	     37.46545266	     90.00000001	      0.00000000	      0.00000000	     -3.96913053	    -12.68549789	    -20.98068106	     32.96491448	     90.00000001	      0.00000000	      0.00000000
